# xmcd CD database file
#
# Track frame offsets:
#	150
#	5602
#	20686
#	37764
#	55113
#	79077
#	93710
#	112637
#	144572
#	167639
#	200471
#	220902
#	236256
#	259748
#	276509
#	298593
#	320288
#
# Disc length: 4679 seconds
#
# Revision: 4
# Processed by: cddbd v1.5.2PL0 Copyright (c) Steve Scherf et al.
# Submitted via: CDex 1.70beta2
#
DISCID=e8124511
DTITLE=Schorsch and de Bagasch - Sekänd Händ Blues
DYEAR=2006
DGENRE=Folk
TTITLE0=Sekänd Händ Intro
TTITLE1=Fesche Mama
TTITLE2=Dia geht's guat
TTITLE3=Du woasst ned wer I bin
TTITLE4=Da Nachbar
TTITLE5=Pantsching Boi
TTITLE6=51er
TTITLE7=Du woanst nia
TTITLE8=Trommen von Afrika
TTITLE9=Wudumond
TTITLE10=Sekänd Händ Blues
TTITLE11=Gmahte Wiesn
TTITLE12=De warn gschead
TTITLE13=Zeit zum Ausziagn
TTITLE14=Bloss in meim Hirn
TTITLE15=Bevor I geh
TTITLE16=Seiwe oide Gschicht (Bonus-Track)
EXTD=YEAR: 2006
EXTT0=
EXTT1=
EXTT2=
EXTT3=
EXTT4=
EXTT5=
EXTT6=
EXTT7=
EXTT8=
EXTT9=
EXTT10=
EXTT11=
EXTT12=
EXTT13=
EXTT14=
EXTT15=
EXTT16=
PLAYORDER=
